<svg xmlns="http://www.w3.org/2000/svg" width="32" height="32" viewBox="0 0 48 48">
  <!-- Icon from Fluent UI System Color Icons by Microsoft Corporation - https://github.com/microsoft/fluentui-system-icons/blob/main/LICENSE -->
  <g fill="none">
    <path fill="url(#SVGIADajdTy)" d="M24 4c11.046 0 20 8.954 20 20s-8.954 20-20 20S4 35.046 4 24S12.954 4 24 4" />
    <path fill="url(#SVGfgSp5cLP)"
      d="m17.782 16.025l.102.091L24 22.233l6.116-6.117a1.25 1.25 0 0 1 1.666-.091l.102.091a1.25 1.25 0 0 1 .091 1.666l-.091.102L25.767 24l6.117 6.116a1.25 1.25 0 0 1 .091 1.666l-.091.102a1.25 1.25 0 0 1-1.666.091l-.102-.091L24 25.767l-6.116 6.117a1.25 1.25 0 0 1-1.666.091l-.102-.091a1.25 1.25 0 0 1-.091-1.666l.091-.102L22.233 24l-6.117-6.116a1.25 1.25 0 0 1-.091-1.666l.091-.102a1.25 1.25 0 0 1 1.666-.091" />
    <defs>
      <linearGradient id="SVGIADajdTy" x1="10.25" x2="36.5" y1="6.5" y2="45.25" gradientUnits="userSpaceOnUse">
        <stop stop-color="#F83F54" />
        <stop offset="1" stop-color="#CA2134" />
      </linearGradient>
      <linearGradient id="SVGfgSp5cLP" x1="16.708" x2="25.3" y1="24.729" y2="33.663" gradientUnits="userSpaceOnUse">
        <stop stop-color="#FDFDFD" />
        <stop offset="1" stop-color="#FECBE6" />
      </linearGradient>
    </defs>
  </g>
</svg>